<?xml version="1.0" encoding="UTF-8"?>
<svg id="Layer_2" xmlns="http://www.w3.org/2000/svg" viewBox="0 0 1296.07 390.54">
  <defs>
    <style>
      .cls-1 {
        fill: #939393;
      }

      .cls-2 {
        fill: #1ca1ea;
      }
    </style>
  </defs>
  <g id="Layer_1-2" data-name="Layer_1">
    <g>
      <path class="cls-2" d="M887.33,110.99c0,15.14-.76,19.83-1.42,21.16l-.2.45c-1.68,4.59-4.53,8.38-8.31,11l-.13.1c-3.15,2.43-8.24,3.72-14.71,3.72s-11.14-1.21-15.39-3.88c-4.28-3.11-6.93-6.83-8.08-11.38l-.26-.76c-1-2.33-1.51-9.19-1.51-20.41v-49.77h-22v51.2c0,15.35,1.73,26.06,5.26,32.68,3.98,8.51,8.99,14.19,15.75,17.85,7.39,4.23,16.21,6.38,26.22,6.38s18.77-2.09,25.72-6.36c7.27-3.96,12.6-10,15.83-17.96,3.5-6.7,5.21-17.05,5.21-31.64v-52.15h-22v49.77Z"/>
      <path class="cls-2" d="M1115.33,110.99c0,11.14-.55,18.43-1.61,21.63-1.65,4.56-4.45,8.33-8.04,10.85-4.32,2.73-9.05,3.95-15.35,3.95s-11.43-1.28-14.57-3.73l-.15-.11c-4.01-2.85-7.06-6.99-8.57-11.6-1.2-4.45-1.71-10.73-1.71-20.99v-49.77h-22v51.2c0,14.39,1.72,25.06,5.27,32.64l.1.2c4.24,7.95,9.68,13.88,16.13,17.62,6.86,4.22,15.85,6.45,26.01,6.45s18.87-2.09,25.85-6.36c7.09-3.84,12.61-9.87,16.41-17.94,3.53-7.55,5.24-17.9,5.24-31.65v-52.15h-23v49.77Z"/>
      <path class="cls-2" d="M781.81,67.22c-6.12-4.36-13.23-6.48-21.74-6.48-7.26,0-14.56,1.93-21.7,5.72-3.07,1.31-6.05,3.29-9.04,6.01v-9.15h-22v105h22v-39.29c.05-12.5.49-20.73,1.35-25.08,1.7-6.75,4.93-11.69,9.88-15.12l.26-.18.43-.4c4.14-4.14,9.53-6.15,16.48-6.15,5.99,0,9.97,1.08,12.24,3.35l.4.35c3.32,2.59,5.51,6.24,6.69,11.15.53,5.9.96,13.2,1.28,21.65v50.72h22v-54.53c0-14.13-1.44-24.45-4.28-30.7-3.85-8.23-8.38-13.59-14.25-16.87Z"/>
      <path class="cls-2" d="M1018.11,76.18c-10.8-11.82-24.54-17.82-40.83-17.82s-29.42,5.83-40.38,17.83c-9.84,10.88-14.62,23.34-14.62,38.12s5.1,27.54,15.19,38.7c10.46,10.98,23.49,16.31,39.82,16.31s30.03-5.5,39.81-16.31c10.55-11.07,15.67-23.73,15.67-38.7s-4.76-26.7-14.57-38.04l-.08-.09ZM1005.89,131.22l-.15.27c-3.05,5.67-6.8,9.57-11.78,12.26-5.05,2.72-10.82,4.16-16.67,4.16-5.13,0-10.57-1.36-16.65-4.16-4.74-3.07-8.66-7.31-11.34-12.27-3.17-5.88-4.64-11.18-4.64-16.68,0-8.93,3.15-16.86,9.57-24.17,6.59-6.57,14.35-9.89,23.06-9.89s16.43,3.32,23.02,9.86c6.46,7.37,9.6,15.29,9.6,24.2,0,6.71-1.34,12.21-4.01,16.41Z"/>
      <path class="cls-2" d="M1207.43,117.92c-3.91-5.02-10.88-10.27-20.17-15.16-6.95-3.71-11.38-6.62-13.17-8.66-1.88-2.67-2.75-4.56-2.75-5.96,0-1.98.89-3.96,2.55-5.73,2.63-1.81,4.86-2.62,7.21-2.62,4.55,0,9.72,2.64,16.26,8.31l3.52,3.05,15.02-15.02-3.73-3.53c-9.97-9.45-20.26-14.23-30.59-14.23-8.96,0-16.39,2.9-22.11,8.61-6.03,6.03-9.09,13.47-9.09,22.11,0,6.9,1.85,12.67,5.67,17.64,2.7,4.17,8.27,8.46,19.27,14.82l.32.17c9.66,4.54,12.92,7.38,14.04,8.73l.26.28c1.26,1.26,1.87,3.22,1.87,5.99s-1.23,5.36-3.78,7.9c-2.25,2.25-5.21,3.3-9.32,3.3-5.46,0-10.92-3.11-16.23-9.23l-3.83-4.42-14,16.62,2.48,3.19c4.09,5.26,8.61,8.9,14.16,11.44,5.26,2.62,11.09,3.83,18.36,3.83,9.57,0,17.63-3.2,23.92-9.47,6.72-6.19,10.13-14.14,10.13-23.63,0-5.86-1.86-11.39-6.06-17.98l-.23-.32Z"/>
      <g>
        <rect class="cls-2" x="669.33" y="63.33" width="22" height="106"/>
        <path class="cls-2" d="M690.92,28.02c-3.58-2.98-7.06-4.49-10.35-4.49-3.82,0-7.35,1.55-10.49,4.61-3.31,2.75-4.99,6.4-4.99,10.87s1.68,8.13,5,10.88c2.83,2.74,6.36,4.13,10.48,4.13,3.54,0,6.99-1.33,10.33-4.01l.35-.31c2.87-2.87,4.32-6.46,4.32-10.68s-1.46-7.81-4.37-10.73l-.29-.26Z"/>
      </g>
      <polygon class="cls-2" points="636.33 27.33 614.33 27.33 614.33 63.33 597.33 63.33 597.33 84.33 614.33 84.33 614.33 169.33 636.33 169.33 636.33 84.33 656.33 84.33 656.33 63.33 636.33 63.33 636.33 27.33"/>
      <path class="cls-2" d="M465.85,76.18c-10.8-11.82-24.54-17.82-40.83-17.82s-29.42,5.83-40.38,17.83c-9.84,10.88-14.62,23.34-14.62,38.12s5.1,27.54,15.19,38.7c10.46,10.98,23.49,16.31,39.82,16.31s29.89-5.35,39.81-16.31c10.55-11.07,15.67-23.73,15.67-38.7s-4.76-26.69-14.57-38.05l-.08-.09ZM453.62,131.22l-.15.27c-3.06,5.68-6.8,9.57-11.78,12.26-5.06,2.73-10.83,4.17-16.68,4.17s-10.97-1.35-16.1-4.11c-5.09-2.98-9.09-7.13-11.89-12.32-3.17-5.88-4.64-11.18-4.64-16.68,0-9.5,3.26-17.38,9.99-24.1l.1-.1c6.03-6.45,13.83-9.85,22.54-9.85s16.52,3.35,23.14,9.97c6.2,6.2,9.48,14.53,9.48,24.09,0,6.7-1.34,12.21-4.01,16.41Z"/>
      <path class="cls-2" d="M582.08,84.11c-3.84-8.27-8.37-13.65-14.25-16.93-6.53-4.33-13.58-6.44-21.53-6.44-7.47,0-14.36,1.84-21.6,5.74-3,1.39-6.14,3.56-9.37,6.48v-9.64h-22v106h22v-40.24c0-11.84.56-19.78,1.76-24.98,1.7-6.79,4.94-11.76,9.92-15.22l.67-.56c4.13-4.14,9.51-6.15,16.44-6.15,5.98,0,9.95,1.08,12.16,3.29l.24.24c3.19,2.79,5.38,6.73,6.54,11.74.58,2.34,1.28,7.91,1.28,21.17v50.7h22v-54.53c0-12.46-1.37-22.64-4.1-30.31l-.15-.38Z"/>
      <g>
        <path class="cls-1" d="M818.37,300.76h0c-5.75,10.07-11.3,17.28-16.95,22.06-5.86,4.96-12.27,8.62-19.13,10.91-7.25,2.72-14.91,4.1-22.76,4.1-16.14,0-29.45-5.46-40.65-16.66-10.09-10.98-15.71-24.82-16.7-41.17h144.72l-.07-3.06c-.5-22.81-6.47-41.3-18.28-56.55-17.19-21.61-40.09-32.57-68.07-32.57s-50.08,10.65-66.2,31.66c-12.73,16.65-19.19,35.53-19.19,56.11,0,23.21,7.62,43.58,22.63,60.53,15.28,17.76,36.72,26.76,63.72,26.76,12.25,0,23.04-1.94,32.95-5.9,9.68-3.58,18.49-9.06,26.16-16.26,7-6.07,13.43-14.98,20.23-28.04l1.38-2.65-22.36-11.79-1.44,2.52ZM722.08,227.83c10.16-9.69,22.72-14.41,38.41-14.41,9.51,0,18.14,1.78,26.34,5.43,7.63,3.6,14.51,8.92,19.88,15.33,4.18,5.31,7.56,12.46,10.31,21.82h-112.02c3.94-12.17,9.67-21.63,17.08-28.17Z"/>
        <path class="cls-1" d="M674.91,193.82c-6.96-4.05-13.57-6.11-19.65-6.11-7.75,0-15.73,2.64-23.04,7.62-5.06,3.33-10.06,8-14.89,13.9v-17.24h-26v166h26v-57.12c0-34.49,1.97-48.56,3.62-54.31,3-11.39,7.66-20.06,13.48-25.08,5.64-4.87,11.56-7.34,17.57-7.34,2.5,0,7.81,1.63,9.81,2.24l2.2.68,13.57-21.68-2.68-1.56Z"/>
        <path class="cls-1" d="M531.33,215.8c-6.94-8.05-14.81-14.51-23.45-19.22-10.88-5.93-23.38-8.94-37.16-8.94-23.26,0-42.96,8.39-60.27,25.67-16.68,17.19-25.13,37.92-25.13,61.62s8.3,44.74,24.69,62.13c17.25,17.26,36.95,25.65,60.23,25.65,12.1,0,24.38-2.82,36.54-8.39,7.82-3.75,19.15-13.64,25.55-19.55v23.22h26v-166h-27v23.8ZM420.5,306.36c-5.44-9.98-8.2-20.39-8.2-30.94s2.76-21.41,8.23-30.99c5.26-10.07,12.35-17.46,21.69-22.6,9.37-5.35,19.89-8.18,30.42-8.18,17.24,0,31.18,5.78,42.65,17.71,11.42,11.41,17.22,26.4,17.22,44.54,0,11.99-2.6,22.56-7.76,31.47-4.9,9.34-11.98,16.57-21.64,22.09-10.13,5.52-20.1,8.21-30.5,8.21-10.45.11-20.8-2.7-29.83-8.13-9.27-5.69-16.97-13.71-22.27-23.17Z"/>
      </g>
      <path class="cls-2" d="M274.8,51.91c23.34,11.43,42.38,27.62,58.11,48.1l29.05-22.86c-17.63-24.29-40.49-43.34-68.58-57.15C266.71,6.67,235.75,0,200.02,0c-57.62,0-105.72,18.57-143.35,55.25C19.05,91.92,0,138.11,0,192.89c0,51.9,15.71,96.2,46.67,132.4,37.62,43.34,89.06,65.24,153.84,65.24,33.81,0,64.77-6.66,92.39-20,27.28-12.35,51.03-31.35,69.07-55.25l-29.05-21.91c-35.25,40.48-78.59,60.96-130.5,60.96-47.15,0-86.68-15.25-117.64-45.73-30.96-30-46.67-68.09-46.67-113.35,0-30.01,7.15-56.68,20.95-80.97,13.82-24.29,33.34-43.34,58.57-57.62,25.23-14.28,52.87-21.43,82.39-21.43,26.68,0,51.44,5.72,74.77,16.68Z"/>
      <path d="M1241.33,69h-10v-4h26v4h-11v31h-5v-31ZM1290.77,84.37c-.26-4.97-.59-10.99-.59-15.37h0c-1.38,4.58-2.88,9.11-4.52,13.61l-6.32,17.39h-3.41l-5.67-16.52c-1.51-4.44-2.83-8.93-3.96-13.48h-.19c-.14,5.08-.36,10.15-.66,15.22l-.92,14.78h-4.35l2.45-35h5.74l6.03,17.1c1.47,4.36,2.62,8.24,3.56,11.9h.11c.95-3.57,2.21-7.44,3.79-11.9l6.29-17.1h5.74s2.17,35,2.17,35h-4.47l-.83-15.63h0Z"/>
      <path class="cls-1" d="M227.1,173.48c-.46-.31-.93-.62-1.4-.95l-97.24-57.56-.17-.09c-8.6-4.38-16.01-2.19-20.32,5.98-4.29,8.11-2.23,15.59,5.72,20.55l91.65,54.09v105.65c0,4.12,1.63,7.98,4.58,10.86,2.82,2.75,6.53,4.26,10.44,4.26.13,0,.26,0,.39,0,9.27-.24,14.59-5.68,14.59-14.94v-114.79c0-7.57-4.18-10.37-8.23-13.07Z"/>
    </g>
  </g>
</svg>