<?xml version="1.0" encoding="UTF-8"?>
<svg id="Layer_2" xmlns="http://www.w3.org/2000/svg" viewBox="0 0 89.1 27.65">
  <defs>
    <style>
      .cls-1 {
        fill: #fff;
      }

      .cls-2 {
        fill: #d7f7ff;
      }

      .cls-3 {
        fill: #f0faff;
      }

      .cls-4 {
        fill: #1ca1ea;
      }

      .cls-5 {
        fill: #001826;
      }
    </style>
  </defs>
  <g id="Layer_1-2" data-name="Layer_1">
    <path class="cls-1" d="M27.65,13.82c0,3.67-1.43,7-3.75,9.47-.1.1-.19.2-.29.3-.4.4-.82.77-1.26,1.11-.12.1-.24.19-.36.28-.84.62-1.75,1.14-2.72,1.55-.14.07-.29.13-.43.18-.37.14-.74.27-1.12.38h-.01c-.11.04-.23.07-.34.1-.66.18-1.35.3-2.05.38-.12.01-.24.02-.37.03-.26.03-.52.04-.79.04-.11.01-.22.01-.33.01-.12,0-.25,0-.37-.01-.6-.01-1.18-.06-1.76-.15-.13-.02-.26-.05-.39-.07-1.39-.26-2.71-.72-3.92-1.36-.12-.06-.24-.13-.36-.2-.48-.27-.95-.57-1.39-.9-.18-.13-.36-.27-.54-.41C1.99,22.01,0,18.15,0,13.82,0,6.19,6.19,0,13.83,0s13.82,6.19,13.82,13.82Z"/>
    <g>
      <path class="cls-5" d="M20.18,10.21c-4.25-.01-8.5-.01-12.75,0-1.46,0-2.66,1.21-2.67,2.67-.01,1,0,2,0,3,0,.25.04.49.11.73.39,1.33,1.66,2.79,3.04,2.8h11.7c1.74,0,3.15-1.87,3.18-3.6.02-1.01.01-2.02,0-3.03-.03-1.38-1.22-2.57-2.61-2.57ZM22.11,15.82c0,.3-.07.6-.18.88-.38.9-1.29,2.01-2.25,2.01H7.98c-1.18,0-2.18-1.25-2.46-2.35-.06-.2-.08-.41-.08-.63v-2.71c.01-1.12.65-1.9,1.72-2.1.12-.02.24-.02.35-.02h12.61c1.03,0,1.91.81,1.97,1.84.07,1.03.02,2.05.02,3.08Z"/>
      <path d="M10.87,13.37c-.25-.58-.67-.96-1.3-1.02-.64-.07-1.17.18-1.5.73-.44.74-.47,1.53-.05,2.29.52.94,1.84,1.09,2.54.3.35-.4.47-.89.48-1.33,0-.39-.04-.69-.17-.97ZM9.91,14.27c-.25,0-.47-.21-.47-.46s.22-.49.48-.49.47.21.47.48-.2.47-.48.47Z"/>
      <path d="M19.78,13.61c-.2-.7-.76-1.19-1.38-1.23-.75-.05-1.36.3-1.65.97-.27.59-.28,1.19-.03,1.79.5,1.2,2.01,1.4,2.79.37.27-.36.37-.77.36-1.24.02-.21-.02-.44-.09-.66ZM18.33,14.33c-.27-.01-.48-.22-.47-.49,0-.26.21-.47.46-.47.26-.01.48.22.49.48,0,.26-.22.48-.48.48Z"/>
      <path d="M15.52,16.26c-.06.11-.15.2-.24.27-.42.35-.9.53-1.49.54-.56,0-1.06-.23-1.49-.63-.04-.04-.08-.08-.11-.12-.12-.16-.1-.36.03-.48.13-.12.36-.12.5.01.11.11.22.21.34.29.58.38,1.29.3,1.8-.2.1-.1.2-.2.37-.19.25.02.4.28.29.51Z"/>
      <path class="cls-5" d="M27.3,12.54c-.09-1.04-.93-1.82-1.97-1.88-.09-.01-.14-.03-.16-.13-.24-1.26-.76-2.3-1.55-3.12-.33-.34-.71-.64-1.14-.9-.02-.01-.14-.1-.39-.22-.05-.02-.09-.05-.14-.07h0c-.28-.12-.7-.28-1.28-.45l.18-.78c.25-.06.45-.25.51-.52.09-.37-.14-.75-.52-.83-.37-.09-.75.15-.83.52-.06.27.04.53.24.69l-.18.76c-.38-.09-.81-.18-1.3-.27-.43-.08-.9-.15-1.42-.21-.39-.05-.81-.1-1.27-.14-1.72-.15-3.23-.1-4.11-.04h-.01c-1.98.16-3.43.42-4.47.68l-.18-.78c.2-.16.3-.42.24-.69-.09-.37-.46-.61-.83-.52-.38.08-.61.46-.53.83.06.27.27.46.52.52l.18.8c-1.31.38-1.75.72-1.75.72-.2.12-.38.25-.56.39h0c-1.17.93-1.81,2.16-2.11,3.59-.03.14-.08.17-.21.17-.2,0-.39.04-.58.11-.81.29-1.38,1.15-1.39,2.11,0,.77,0,1.53,0,2.3,0,.23.03.46.08.69.21.94.91,1.59,1.85,1.68.13.02.14.09.15.18.39,2.05,1.57,3.39,3.56,4.03.56.18,1.14.24,1.76.29-.05.04-.07.05-.09.06-.82.46-1.48,1.09-2.05,1.82-.16.2-.31.41-.45.62.18.14.36.28.54.41.22-.33.47-.65.73-.96.56-.65,1.21-1.18,2-1.54h.01s0-.01.02-.01c.01-.01.03-.02.04-.02.06-.03.12-.06.18-.09h0c-.17.38-.27.69-.3.99-.03.25-.05.54,0,.82.03.13.03.3-.19.41-.55.27-.91.7-1.1,1.3.12.07.24.14.36.2.2-.72.68-1.17,1.38-1.31.85-.17,1.6.19,2.01.95.28.52.46,1.1.53,1.72.13.02.26.05.39.07-.08-.71-.27-1.37-.58-1.96-.45-.85-1.14-1.25-2.07-1.18h-.02c-.07,0-.3.02-.33-.24-.08-.8.11-1.47.58-1.99.19-.04.4-.06.61-.05.03.07.06.14.07.16.43.86,1.01,1.58,1.84,2.08.45.27.93.47,1.45.53.16.02.21.08.21.24v2.56c.12.01.25.01.37.01.11,0,.22,0,.33-.01,0-.86,0-1.72-.01-2.59,0-.11.01-.18.15-.21,1.56-.26,2.65-1.16,3.35-2.56.01-.02.02-.04.03-.07,0-.01.02-.02.04-.05,0,0,.11,0,.29.03.34.56.41,1.38.31,2.05-.11.69-.4,1.34-.91,2.07-.1.15-.22.2-.37.17-.18-.08-.39-.13-.61-.13-.74,0-1.36.54-1.48,1.25.13-.01.25-.02.37-.03.12-.5.58-.87,1.11-.87.17,0,.33.03.47.1.17.07.32.19.44.34,0,.02.02.03.03.05.11-.03.23-.06.34-.1-.02-.06-.06-.11-.1-.16-.04-.12-.02-.22.07-.34.54-.74.89-1.55,1.03-2.39.09-.52.07-1.29-.12-1.76l-.02-.04s-.01-.04-.02-.06c.44.17,1,.48,1.52,1.08-.2.13-.35.32-.41.54l-.82,2.75c.14-.05.29-.11.43-.18l.74-2.46c.02-.08.06-.15.11-.2.02-.03.05-.06.08-.08.03-.03.06-.05.09-.06.09-.05.18-.07.27-.07.06,0,.11,0,.17.02l.61.18-.11.39c-.08.25.07.53.32.6l.44.13c.12-.09.24-.18.36-.28l-.69-.2s-.05-.03-.07-.06c-.01-.03-.02-.06-.01-.09l.12-.38.1-.35.13-.41s.02-.06.05-.07c.03-.02.06-.02.09-.01l1.54.46c.1-.1.19-.2.29-.3l-1.72-.51c-.13-.04-.26-.03-.37.03-.12.06-.2.17-.24.29l-.12.41-.58-.17c-.44-.44-.99-.95-1.51-1.27.56-.03,1.11-.06,1.66-.15,2.14-.34,3.85-2.04,4.15-3.97.04-.27.12-.37.42-.43.94-.17,1.62-.94,1.71-1.92.09-1.02.09-2.04,0-3.06ZM2.33,14.12c0,.85,0,1.7,0,2.55,0,.16-.04.2-.2.17-.46-.1-.77-.38-.98-.8-.1-.22-.16-.47-.16-.71-.01-.82-.01-1.63,0-2.45,0-.48.17-.91.55-1.23.17-.15.37-.23.59-.28.15-.03.2,0,.2.17,0,.86,0,1.72,0,2.58ZM15.13,23.89c-1.61.7-3.35.1-4.29-1.47-.06-.1-.19-.22-.14-.3.03-.06.21-.04.32-.04h5.95c-.41.85-1.02,1.44-1.84,1.81ZM24.56,17.12c-.06,2.03-1.47,3.7-3.47,4.1-.58.12-1.18.15-1.77.15-3.7.01-7.39.01-11.09.01-.93-.01-1.85-.09-2.7-.49-1.42-.69-2.27-1.8-2.47-3.39-.02-.21-.03-.42-.03-.63v-4.81c0-.36.02-.72.07-1.07.03-.23.07-.46.13-.69.08-.35.19-.69.34-1.02.3-.64.69-1.19,1.19-1.64.15-.14.32-.27.49-.39.17-.11.34-.22.52-.31.06-.03.12-.06.18-.09,0,0,1.72-.96,6.58-1.27.27-.02,1.29-.07,2.35-.02.22.02.43.03.64.05.09,0,.18.01.27.02.13.02.24.03.32.03,4.09.37,5.56,1.19,5.56,1.19l.12.05h0s.1.07.15.1t.01.01c.21.11.41.24.59.38.58.42,1.04.96,1.4,1.62.46.86.63,1.8.64,2.77,0,1.78.03,3.56-.02,5.34ZM26.6,15.47c-.03.67-.49,1.22-1.09,1.37-.22.05-.24.04-.24-.2v-5.07c0-.23.02-.24.24-.2.61.13,1.06.65,1.09,1.33.05.92.06,1.85,0,2.77Z"/>
      <path class="cls-5" d="M23.61,23.59c-.4.4-.82.77-1.26,1.11l-.69-.2s-.05-.03-.07-.06c-.01-.03-.02-.06-.01-.09l.12-.38.1-.35.13-.41s.02-.06.05-.07c.03-.02.06-.02.09-.01l1.54.46Z"/>
      <path class="cls-2" d="M26.6,15.47c-.04.66-.5,1.22-1.09,1.36-.23.06-.24.04-.24-.19v-2.55c0-.84,0-1.68,0-2.53,0-.23.02-.24.25-.2.6.12,1.05.65,1.09,1.33.05.92.05,1.85,0,2.77Z"/>
      <path class="cls-1" d="M17.34,27.14c-.12-.15-.27-.27-.44-.34-.14-.07-.3-.1-.47-.1-.53,0-.99.37-1.11.87.7-.08,1.39-.2,2.05-.38-.01-.02-.02-.03-.03-.05Z"/>
      <path class="cls-1" d="M16.97,22.08c-.41.85-1.02,1.44-1.84,1.81-1.61.7-3.34.11-4.29-1.47-.06-.1-.18-.21-.14-.3.03-.06.21-.03.32-.03,1.87,0,3.73,0,5.6,0h.34Z"/>
      <path class="cls-1" d="M23.61,23.59c-.4.4-.82.77-1.26,1.11l-.69-.2s-.05-.03-.07-.06c-.01-.03-.02-.06-.01-.09l.12-.38.1-.35.13-.41s.02-.06.05-.07c.03-.02.06-.02.09-.01l1.54.46Z"/>
      <path class="cls-1" d="M21.99,24.98c-.84.62-1.75,1.14-2.72,1.55l.74-2.46c.03-.07.06-.14.11-.2.02-.03.05-.06.08-.08.03-.03.06-.05.09-.06.09-.05.18-.07.27-.07.06,0,.11,0,.17.02l.61.18-.11.39c-.08.25.07.53.32.6l.44.13Z"/>
      <path class="cls-2" d="M18.32,24.24c-.11.69-.4,1.34-.91,2.07-.1.15-.22.2-.37.17-.18-.08-.39-.13-.61-.13-.74,0-1.36.54-1.48,1.25-.26.03-.52.04-.79.04,0-.86,0-1.72-.01-2.59,0-.11.01-.18.15-.21,1.56-.26,2.65-1.16,3.35-2.56.01-.02.02-.04.03-.07,0-.01.02-.02.04-.05,0,0,.11,0,.29.03.34.56.41,1.38.31,2.05Z"/>
      <path class="cls-2" d="M20.07,23.42c-.2.13-.35.32-.41.54l-.82,2.75c-.37.14-.74.27-1.12.38h-.01c-.02-.06-.06-.11-.1-.16-.04-.12-.02-.22.07-.34.54-.74.89-1.55,1.03-2.39.09-.52.07-1.29-.12-1.76l-.02-.04s-.01-.04-.02-.06c.44.17,1,.48,1.52,1.08Z"/>
      <path class="cls-2" d="M7.03,25.86c-.48-.27-.95-.57-1.39-.9.22-.33.47-.65.73-.96.56-.65,1.21-1.18,2-1.54h.01s0-.01.02-.01c.01-.01.03-.02.04-.02.06-.03.12-.06.18-.09h0c-.17.38-.27.69-.3.99-.03.25-.05.54,0,.82.03.13.03.3-.19.41-.55.27-.91.7-1.1,1.3Z"/>
      <path class="cls-2" d="M10.78,25.7c.28.52.46,1.1.53,1.72-1.39-.26-2.71-.72-3.92-1.36.2-.72.68-1.17,1.38-1.31.85-.17,1.6.19,2.01.95Z"/>
      <path class="cls-2" d="M13.46,25.08v2.56c-.6-.01-1.18-.06-1.76-.15-.08-.71-.27-1.37-.58-1.96-.45-.85-1.14-1.25-2.07-1.18h-.02c-.07,0-.3.02-.33-.24-.08-.8.11-1.47.58-1.99.19-.04.4-.06.61-.05.03.07.06.14.07.16.43.86,1.01,1.58,1.84,2.08.45.27.93.47,1.45.53.16.02.21.08.21.24Z"/>
      <path class="cls-2" d="M2.33,16.67c0,.16-.04.2-.2.17-.47-.1-.78-.38-.98-.8-.11-.22-.16-.47-.16-.71,0-.81-.01-1.63,0-2.44,0-.48.17-.91.55-1.24.17-.15.37-.23.59-.28.15-.03.2,0,.2.17,0,.86,0,1.72,0,2.59,0,.85,0,1.7,0,2.55Z"/>
      <path class="cls-1" d="M24.58,11.78c0-.97-.18-1.91-.64-2.77-.36-.66-.82-1.2-1.4-1.62-.18-.14-.38-.27-.59-.38t-.01-.01s-.15-.09-.15-.09c0,0,0-.01.01-.01h-.01l-.12-.05s-1.47-.82-5.56-1.19c-.08,0-.19-.01-.32-.03-.09-.01-.18-.02-.27-.02-.21-.02-.42-.03-.64-.05-1.06-.05-2.08,0-2.35.02-4.86.31-6.58,1.27-6.58,1.27-.06.03-.12.06-.18.09-.18.09-.35.2-.52.31-.17.12-.34.25-.49.39-.5.45-.89,1-1.19,1.64-.15.33-.26.67-.34,1.02-.06.23-.1.46-.13.69-.04.35-.06.71-.06,1.07,0,1.6,0,3.21,0,4.81,0,.21,0,.42.03.63.2,1.59,1.05,2.7,2.47,3.39.85.4,1.77.48,2.7.49,3.7,0,7.39,0,11.09-.01.59,0,1.19-.03,1.77-.15,2-.4,3.41-2.07,3.47-4.1.05-1.78.02-3.56.02-5.34ZM22.79,15.81c-.03,1.73-1.44,3.6-3.18,3.6H7.91c-1.38-.01-2.65-1.47-3.04-2.8-.07-.24-.11-.48-.11-.73,0-1-.01-2,0-3,0-1.46,1.21-2.67,2.67-2.67,4.25-.01,8.5-.01,12.75,0,1.39,0,2.58,1.19,2.61,2.57.01,1.01.02,2.02,0,3.03Z"/>
      <path class="cls-3" d="M22.09,12.74c-.06-1.03-.94-1.84-1.97-1.84H7.51c-.11,0-.23,0-.35.02-1.07.2-1.71.98-1.72,2.1v2.71c0,.22.02.43.08.63.28,1.1,1.28,2.35,2.46,2.35h11.7c.96,0,1.87-1.11,2.25-2.01.11-.28.18-.58.18-.88,0-1.03.05-2.05-.02-3.08ZM10.56,15.67c-.7.79-2.02.64-2.54-.3-.42-.76-.39-1.55.05-2.29.33-.55.86-.8,1.5-.73.63.06,1.05.44,1.3,1.02.13.28.17.58.17.97,0,.44-.13.93-.48,1.33ZM15.52,16.26c-.06.11-.15.2-.24.28-.42.34-.9.53-1.49.53-.56.01-1.06-.22-1.49-.63-.04-.03-.08-.08-.11-.12-.12-.17-.1-.36.03-.48.14-.13.37-.13.51.01.1.11.21.21.34.29.58.38,1.29.3,1.8-.2.02-.02.05-.05.07-.07.05-.04.09-.08.15-.1.03-.01.06-.02.1-.02h.04c.25.02.4.28.29.51ZM19.51,15.51c-.78,1.03-2.29.83-2.79-.37-.25-.6-.24-1.2.03-1.79.29-.67.9-1.02,1.65-.97.62.04,1.18.53,1.38,1.23.07.22.11.45.09.66.01.47-.09.88-.36,1.24Z"/>
      <path class="cls-1" d="M18.81,13.85c0,.27-.21.48-.48.48-.27,0-.47-.21-.47-.49,0-.26.21-.47.47-.47.25,0,.48.22.48.48Z"/>
      <path class="cls-1" d="M10.39,13.8c0,.27-.21.47-.48.47-.25,0-.47-.21-.47-.46,0-.26.22-.49.48-.49.27,0,.48.21.48.48Z"/>
    </g>
    <g>
      <path class="cls-4" d="M32.13,17.91h-1.16l2.62-7.27h1.27l2.62,7.27h-1.17l-2.06-5.95h-.06l-2.06,5.95ZM32.32,15.06h3.78v.92h-3.78v-.92Z"/>
      <path class="cls-4" d="M39.51,10.64v7.27h-1.1v-7.27h1.1Z"/>
      <path class="cls-4" d="M47.52,12.55c-.04-.34-.19-.6-.47-.78-.27-.19-.62-.28-1.04-.28-.3,0-.56.05-.77.14-.22.09-.39.22-.51.38-.12.16-.18.35-.18.55,0,.17.04.32.12.45s.19.23.32.31.28.15.43.21c.15.06.3.1.44.14l.71.19c.23.06.47.13.71.23.24.1.47.23.68.38s.38.35.51.59.19.52.19.84c0,.41-.11.78-.32,1.1-.21.32-.52.57-.92.76s-.89.28-1.45.28-1.02-.09-1.41-.26-.71-.42-.93-.74c-.22-.32-.35-.7-.37-1.13h1.1c.02.26.11.48.26.65.15.17.34.3.58.39s.49.13.78.13c.31,0,.59-.05.83-.15.24-.1.43-.24.57-.41s.21-.38.21-.62c0-.22-.06-.39-.18-.53-.12-.14-.29-.25-.49-.34s-.44-.17-.7-.24l-.86-.23c-.58-.16-1.04-.39-1.38-.7-.34-.31-.51-.71-.51-1.22,0-.42.11-.78.34-1.1.23-.31.54-.56.92-.73.39-.17.83-.26,1.31-.26s.93.09,1.3.26.67.41.89.71c.22.3.33.65.34,1.04h-1.06Z"/>
      <path class="cls-4" d="M52.1,18.02c-.53,0-.98-.12-1.36-.36s-.67-.57-.88-1c-.2-.42-.31-.91-.31-1.46s.1-1.04.31-1.47c.21-.42.5-.76.88-1,.38-.24.83-.36,1.34-.36.41,0,.78.08,1.11.23.32.15.59.37.79.64.2.27.32.6.36.96h-1.03c-.06-.26-.19-.48-.39-.66-.2-.19-.47-.28-.81-.28-.3,0-.55.08-.78.23-.22.15-.39.38-.52.66-.12.29-.18.62-.18,1.01s.06.74.18,1.03c.12.29.29.51.51.67s.48.24.78.24c.2,0,.38-.04.55-.11.16-.07.3-.18.42-.32s.19-.31.24-.5h1.03c-.04.35-.15.67-.34.94-.19.28-.45.49-.77.65-.32.16-.7.24-1.13.24Z"/>
      <path class="cls-4" d="M55.38,17.91v-5.45h1.03v.87h.06c.1-.29.28-.52.53-.69s.54-.25.86-.25c.07,0,.15,0,.24,0,.09,0,.16.01.21.02v1.02s-.12-.03-.23-.04c-.11-.02-.22-.02-.33-.02-.25,0-.47.05-.67.16-.2.11-.35.25-.46.44-.11.19-.17.4-.17.63v3.33h-1.06Z"/>
      <path class="cls-4" d="M59.66,11.61c-.18,0-.34-.06-.47-.19-.13-.12-.2-.27-.2-.45s.07-.33.2-.45c.13-.12.29-.19.47-.19s.34.06.47.19c.13.12.2.27.2.45s-.07.32-.2.45c-.13.12-.29.19-.47.19ZM59.13,17.91v-5.45h1.06v5.45h-1.06Z"/>
      <path class="cls-4" d="M61.6,17.91v-7.27h1.06v2.7h.06c.06-.11.15-.25.27-.39.12-.15.28-.28.48-.39s.48-.17.82-.17c.44,0,.83.11,1.18.33.35.22.62.54.81.96.2.42.3.92.3,1.51s-.1,1.09-.29,1.51c-.2.42-.47.74-.81.97-.34.23-.74.34-1.18.34-.33,0-.6-.06-.81-.17-.21-.11-.37-.24-.49-.39-.12-.15-.21-.28-.27-.4h-.09v.85h-1.04ZM62.64,15.18c0,.38.06.72.17,1.01.11.29.27.51.48.68.21.16.47.24.77.24s.58-.08.79-.25c.21-.17.38-.4.49-.69.11-.29.17-.62.17-.98s-.05-.68-.16-.97c-.11-.29-.27-.51-.48-.68-.21-.17-.48-.25-.8-.25s-.57.08-.78.24-.37.38-.48.66c-.11.28-.16.62-.16.99Z"/>
      <path class="cls-4" d="M70.02,18.02c-.54,0-1-.12-1.39-.35-.39-.23-.69-.56-.89-.98-.21-.42-.31-.91-.31-1.48s.1-1.05.31-1.48c.21-.43.5-.76.88-1,.38-.24.82-.36,1.33-.36.31,0,.61.05.89.15.29.1.55.26.78.48.23.22.41.5.54.85.13.35.2.77.2,1.26v.38h-4.34v-.8h3.29c0-.28-.06-.53-.17-.74-.11-.22-.27-.39-.48-.51-.2-.12-.44-.19-.72-.19-.3,0-.56.07-.78.22s-.39.33-.51.57c-.12.23-.18.49-.18.76v.62c0,.36.06.67.19.93.13.26.31.45.54.58.23.13.5.2.81.2.2,0,.38-.03.55-.09.17-.06.31-.15.43-.26.12-.12.21-.26.28-.43l1,.18c-.08.3-.22.55-.43.78-.21.22-.47.39-.78.52s-.67.18-1.06.18Z"/>
    </g>
    <path class="cls-4" d="M89.1,13.82s0,0,0,0h0c-1.67,0-3.19-.68-4.29-1.78-1.1-1.1-1.78-2.62-1.78-4.29,0,3.35-2.71,6.07-6.07,6.07h0s0,0,0,0c0,0,0,0,0,0h0c1.67,0,3.19.68,4.29,1.78,1.1,1.1,1.78,2.62,1.78,4.29,0-3.35,2.71-6.07,6.07-6.07h0s0,0,0,0Z"/>
  </g>
</svg>